<?xml version="1.0" encoding="UTF-8"?><svg version="1.1" viewBox="0 0 24 24" xmlns="http://www.w3.org/2000/svg" xmlns:xlink="http://www.w3.org/1999/xlink"><!--Generated by IJSVG (https://github.com/iconjar/IJSVG)--><defs><mask id="a" maskContentUnits="userSpaceOnUse" maskUnits="objectBoundingBox"><path fill="#FFF" d="M0,0h24v24h-24v-24Z"></path></mask></defs><path mask="url(#a)" d="M21,10.12h-6.78l2.74,-2.82c-2.73,-2.7 -7.15,-2.8 -9.88,-0.1c-2.73,2.71 -2.73,7.08 0,9.79c2.73,2.71 7.15,2.71 9.88,0c1.36,-1.34 2.04,-2.91 2.04,-4.89h2c0,1.98 -0.88,4.55 -2.64,6.29c-3.51,3.48 -9.21,3.48 -12.72,0c-3.5,-3.47 -3.53,-9.11 -0.02,-12.58c3.51,-3.47 9.14,-3.47 12.65,0l2.73,-2.81v7.12Zm-8.5,-2.12v4.25l3.5,2.08l-0.72,1.21l-4.28,-2.54v-5h1.5Z" fill="#BDBDBD"></path></svg>